/* XPM */
static char * bottom_left_active_xpm[] = {
"15 13 2 1",
" 	c None",
".	c #C0C0C0",
".              ",
".              ",
".              ",
".              ",
".              ",
".              ",
".              ",
".              ",
".              ",
".              ",
".              ",
".              ",
"..............."};
