/* XPM */
static char * menu_inactive_xpm[] = {
"8 22 46 1",
" 	c None",
".	c #0E0E0E",
"+	c #262626",
"@	c #2F2F2F",
"#	c #302F30",
"$	c #2F2F30",
"%	c #302F2F",
"&	c #2F3030",
"*	c #303030",
"=	c #30302F",
"-	c #313030",
";	c #303130",
">	c #313130",
",	c #313131",
"'	c #313231",
")	c #323232",
"!	c #313132",
"~	c #323131",
"{	c #323132",
"]	c #313232",
"^	c #323233",
"/	c #323332",
"(	c #333233",
"_	c #333232",
":	c #333332",
"<	c #333333",
"[	c #333433",
"}	c #333334",
"|	c #343333",
"1	c #343433",
"2	c #343434",
"3	c #333434",
"4	c #343334",
"5	c #353534",
"6	c #343435",
"7	c #353435",
"8	c #353535",
"9	c #343534",
"0	c #343535",
"a	c #363535",
"b	c #363636",
"c	c #353635",
"d	c #363536",
"e	c #363635",
"f	c #3F3F3F",
"g	c #1D1D1D",
"........",
"++++++++",
"@@@@@@@@",
"#@$%%%@$",
"&****=*#",
"-;***-**",
";>;--,;>",
",,,,,,,,",
",',)!,,~",
"){))))]{",
"^/^(^_)^",
"(^/():(_",
"(<<<<<<(",
"[}|<[<}|",
"12}3[4[4",
"25222262",
"57689705",
"88008788",
"888a8a8a",
"bccbdbed",
"ffffffff",
"gggggggg"};
