/* XPM */
static char * bottom_right_inactive_xpm[] = {
"14 13 2 1",
" 	c None",
".	c #C0C0C0",
"             .",
"             .",
"             .",
"             .",
"             .",
"             .",
"             .",
"             .",
"             .",
"             .",
"             .",
"             .",
".............."};
