/* XPM */
static char * menu_active_xpm[] = {
"8 22 30 1",
" 	c None",
".	c #0E0E0E",
"+	c #7B7B7B",
"@	c #3A3A3A",
"#	c #3A3A39",
"$	c #393A3A",
"%	c #393A39",
"&	c #393939",
"*	c #3A393A",
"=	c #39393A",
"-	c #393938",
";	c #383939",
">	c #383938",
",	c #393839",
"'	c #393838",
")	c #383838",
"!	c #383738",
"~	c #373737",
"{	c #383837",
"]	c #373838",
"^	c #383737",
"/	c #373738",
"(	c #373837",
"_	c #373736",
":	c #363736",
"<	c #363737",
"[	c #373636",
"}	c #363636",
"|	c #3F3F3F",
"1	c #1D1D1D",
"........",
"++++++++",
"@@##@@$#",
"@@%@&$*=",
"@*#=&&*#",
"&&=&&*@&",
"&&&&&%&&",
"&&&&-&;&",
"&>-&>;&&",
",';;-,>'",
"))>)>))>",
")>>))));",
"))!)!)))",
"!)!~{)))",
"{)]]{^/^",
"]~~~/~^(",
"~~//~~~~",
"~~~_~~~_",
":~~__<[~",
":}:<~_:_",
"||||||||",
"11111111"};
