/* XPM */
static char * title_5_inactive_xpm[] = {
"8 22 15 1",
" 	c None",
".	c #202020",
"+	c #3A3A3A",
"@	c #3A3A39",
"#	c #383838",
"$	c #373838",
"%	c #363636",
"&	c #343434",
"*	c #333434",
"=	c #323232",
"-	c #323231",
";	c #313232",
">	c #303030",
",	c #30302F",
"'	c #2E2E2E",
"........",
"+++@++++",
"##$#####",
"%%%%%%%%",
"&&&&*&&&",
"=-;=====",
">>>>>,>>",
"''''''''",
"''''''''",
"''''''''",
"''''''''",
"''''''''",
"''''''''",
"''''''''",
"''''''''",
"''''''''",
"''''''''",
"''''''''",
"''''''''",
"''''''''",
"''''''''",
"''''''''"};
