/* XPM */
static char * top_right_inactive_xpm[] = {
"7 22 2 1",
" 	c None",
".	c #C0C0FF",
"...    ",
".....  ",
"...... ",
"...... ",
".......",
".......",
".......",
".......",
".......",
".......",
".......",
".......",
".......",
".......",
".......",
".......",
".......",
".......",
".......",
".......",
".......",
"......."};
