/* XPM */
static char * top_left_active_xpm[] = {
"8 22 31 1",
" 	c None",
".	c #0E0E0E",
"+	c #272727",
"@	c #7B7B7B",
"#	c #3A3A39",
"$	c #3A3A3A",
"%	c #393A3A",
"&	c #393A39",
"*	c #393939",
"=	c #3A393A",
"-	c #39393A",
";	c #393938",
">	c #383939",
",	c #383938",
"'	c #393838",
")	c #393839",
"!	c #383838",
"~	c #383738",
"{	c #373737",
"]	c #383837",
"^	c #373838",
"/	c #383737",
"(	c #373738",
"_	c #373837",
":	c #373736",
"<	c #363737",
"[	c #373636",
"}	c #363636",
"|	c #363736",
"1	c #3F3F3F",
"2	c #1D1D1D",
"  ......",
" .+@@@@@",
".+##$$%#",
".$&$*%=-",
".=#-**=#",
".*-**=$*",
".****&**",
".***;*>*",
".,;*,>**",
".'>>;),'",
".!,!,!!,",
".,,!!!!>",
".!~!~!!!",
".!~{]!!!",
".!^^]/(/",
".{{{({/_",
".{(({{{{",
".{{:{{{:",
".{{::<[{",
".}|<{:|:",
".1111111",
".2222222"};
